<svg width="891.9650146484374px" height="127.5199981689453px" xmlns="http://www.w3.org/2000/svg" viewBox="-195.98250732421872 11.240000915527347 891.9650146484374 127.5199981689453" style="background: none;" preserveAspectRatio="xMidYMid"><defs><linearGradient id="editing-gradient-gradient" x1="0" x2="1" y1="0.5" y2="0.5" gradientUnits="objectBoundingBox"><stop offset="0" stop-color="#831a19"></stop><stop offset="1" stop-color="#c24229"></stop></linearGradient></defs><g><g transform="translate(-70.89497375488281, 98.76499938964844)"><path d="M31.74 0L29.78 0L12.54-33.87L12.54 0L5.93 0L5.93-46.21L13.15-46.21L30.74-11.41L48.37-46.21L55.56-46.21L55.56 0L48.98 0L48.98-33.87L31.74 0ZM66.81-6.35L66.81-14.99L66.81-14.99Q66.81-16.31 67.31-17.45L67.31-17.45L67.31-17.45Q67.80-18.59 68.66-19.46L68.66-19.46L68.66-19.46Q69.51-20.33 70.67-20.83L70.67-20.83L70.67-20.83Q71.83-21.33 73.12-21.33L73.12-21.33L89.49-21.33L89.49-27.97L68.77-27.97L68.77-34.32L89.49-34.32L89.49-34.32Q90.81-34.32 91.97-33.82L91.97-33.82L91.97-33.82Q93.13-33.32 93.99-32.47L93.99-32.47L93.99-32.47Q94.84-31.61 95.34-30.45L95.34-30.45L95.34-30.45Q95.84-29.29 95.84-27.97L95.84-27.97L95.84 0L89.49 0L89.49-5.80L89.49-5.80Q89.40-4.61 88.85-3.54L88.85-3.54L88.85-3.54Q88.30-2.48 87.45-1.69L87.45-1.69L87.45-1.69Q86.59-0.90 85.50-0.45L85.50-0.45L85.50-0.45Q84.40 0 83.18 0L83.18 0L73.12 0L73.12 0Q71.83 0 70.67-0.50L70.67-0.50L70.67-0.50Q69.51-1.00 68.66-1.85L68.66-1.85L68.66-1.85Q67.80-2.71 67.31-3.87L67.31-3.87L67.31-3.87Q66.81-5.03 66.81-6.35L66.81-6.35ZM73.12-14.99L73.12-6.35L89.49-6.35L89.49-14.99L73.12-14.99ZM125.81-27.97L112.73-27.97L112.73 0L106.41 0L106.41-34.32L112.73-34.32L112.73-28.26L112.73-28.26Q112.79-29.52 113.31-30.63L113.31-30.63L113.31-30.63Q113.82-31.74 114.68-32.56L114.68-32.56L114.68-32.56Q115.53-33.39 116.66-33.85L116.66-33.85L116.66-33.85Q117.79-34.32 119.08-34.32L119.08-34.32L125.81-34.32L125.81-34.32Q127.13-34.32 128.28-33.82L128.28-33.82L128.28-33.82Q129.42-33.32 130.29-32.47L130.29-32.47L130.29-32.47Q131.16-31.61 131.66-30.45L131.66-30.45L131.66-30.45Q132.16-29.29 132.16-27.97L132.16-27.97L132.16-22.17L125.81-22.17L125.81-27.97ZM181.76-27.97L167.26-27.97L167.26 0L160.91 0L160.91-27.97L146.37-27.97L146.37 0L140.06 0L140.06-34.32L146.37-34.32L146.37-28.26L146.37-28.26Q146.44-29.52 146.95-30.63L146.95-30.63L146.95-30.63Q147.47-31.74 148.32-32.56L148.32-32.56L148.32-32.56Q149.18-33.39 150.30-33.85L150.30-33.85L150.30-33.85Q151.43-34.32 152.72-34.32L152.72-34.32L160.91-34.32L160.91-34.32Q162.16-34.32 163.29-33.85L163.29-33.85L163.29-33.85Q164.42-33.39 165.29-32.56L165.29-32.56L165.29-32.56Q166.16-31.74 166.69-30.63L166.69-30.63L166.69-30.63Q167.22-29.52 167.26-28.26L167.26-28.26L167.26-28.26Q167.32-29.52 167.82-30.63L167.82-30.63L167.82-30.63Q168.32-31.74 169.17-32.56L169.17-32.56L169.17-32.56Q170.03-33.39 171.16-33.85L171.16-33.85L171.16-33.85Q172.28-34.32 173.57-34.32L173.57-34.32L181.76-34.32L181.76-34.32Q183.08-34.32 184.24-33.82L184.24-33.82L184.24-33.82Q185.40-33.32 186.25-32.47L186.25-32.47L186.25-32.47Q187.11-31.61 187.61-30.45L187.61-30.45L187.61-30.45Q188.11-29.29 188.11-27.97L188.11-27.97L188.11 0L181.76 0L181.76-27.97ZM198.68-6.35L198.68-14.99L198.68-14.99Q198.68-16.31 199.18-17.45L199.18-17.45L199.18-17.45Q199.68-18.59 200.53-19.46L200.53-19.46L200.53-19.46Q201.38-20.33 202.54-20.83L202.54-20.83L202.54-20.83Q203.70-21.33 204.99-21.33L204.99-21.33L221.36-21.33L221.36-27.97L200.64-27.97L200.64-34.32L221.36-34.32L221.36-34.32Q222.69-34.32 223.85-33.82L223.85-33.82L223.85-33.82Q225.01-33.32 225.86-32.47L225.86-32.47L225.86-32.47Q226.71-31.61 227.21-30.45L227.21-30.45L227.21-30.45Q227.71-29.29 227.71-27.97L227.71-27.97L227.71 0L221.36 0L221.36-5.80L221.36-5.80Q221.27-4.61 220.72-3.54L220.72-3.54L220.72-3.54Q220.17-2.48 219.32-1.69L219.32-1.69L219.32-1.69Q218.46-0.90 217.37-0.45L217.37-0.45L217.37-0.45Q216.27 0 215.05 0L215.05 0L204.99 0L204.99 0Q203.70 0 202.54-0.50L202.54-0.50L202.54-0.50Q201.38-1.00 200.53-1.85L200.53-1.85L200.53-1.85Q199.68-2.71 199.18-3.87L199.18-3.87L199.18-3.87Q198.68-5.03 198.68-6.35L198.68-6.35ZM204.99-14.99L204.99-6.35L221.36-6.35L221.36-14.99L204.99-14.99ZM257.68-27.97L244.60-27.97L244.60 0L238.28 0L238.28-34.32L244.60-34.32L244.60-28.26L244.60-28.26Q244.66-29.52 245.18-30.63L245.18-30.63L245.18-30.63Q245.70-31.74 246.55-32.56L246.55-32.56L246.55-32.56Q247.40-33.39 248.53-33.85L248.53-33.85L248.53-33.85Q249.66-34.32 250.95-34.32L250.95-34.32L257.68-34.32L257.68-34.32Q259.00-34.32 260.15-33.82L260.15-33.82L260.15-33.82Q261.29-33.32 262.16-32.47L262.16-32.47L262.16-32.47Q263.03-31.61 263.53-30.45L263.53-30.45L263.53-30.45Q264.03-29.29 264.03-27.97L264.03-27.97L264.03-22.17L257.68-22.17L257.68-27.97ZM271.93-6.35L271.93-14.99L271.93-14.99Q271.93-16.31 272.43-17.45L272.43-17.45L272.43-17.45Q272.93-18.59 273.78-19.46L273.78-19.46L273.78-19.46Q274.63-20.33 275.79-20.83L275.79-20.83L275.79-20.83Q276.96-21.33 278.24-21.33L278.24-21.33L294.62-21.33L294.62-27.97L273.89-27.97L273.89-34.32L294.62-34.32L294.62-34.32Q295.94-34.32 297.10-33.82L297.10-33.82L297.10-33.82Q298.26-33.32 299.11-32.47L299.11-32.47L299.11-32.47Q299.96-31.61 300.46-30.45L300.46-30.45L300.46-30.45Q300.96-29.29 300.96-27.97L300.96-27.97L300.96 0L294.62 0L294.62-5.80L294.62-5.80Q294.52-4.61 293.97-3.54L293.97-3.54L293.97-3.54Q293.42-2.48 292.57-1.69L292.57-1.69L292.57-1.69Q291.71-0.90 290.62-0.45L290.62-0.45L290.62-0.45Q289.52 0 288.30 0L288.30 0L278.24 0L278.24 0Q276.96 0 275.79-0.50L275.79-0.50L275.79-0.50Q274.63-1.00 273.78-1.85L273.78-1.85L273.78-1.85Q272.93-2.71 272.43-3.87L272.43-3.87L272.43-3.87Q271.93-5.03 271.93-6.35L271.93-6.35ZM278.24-14.99L278.24-6.35L294.62-6.35L294.62-14.99L278.24-14.99ZM331.97 0L331.97-46.21L365.64-46.21L365.64-39.61L338.57-39.61L338.57-26.39L361.68-26.39L361.68-19.79L338.57-19.79L338.57-6.61L365.64-6.61L365.64 0L331.97 0ZM374.89-15.44L374.89-21.79L390.33-21.79L390.33-15.44L374.89-15.44ZM397.58-39.61L397.58-46.21L434.54-46.21L434.54-39.61L419.36-39.61L419.36 0L412.76 0L412.76-39.61L397.58-39.61ZM442.15-34.32L448.50-34.32L448.50 0L442.15 0L442.15-34.32ZM441.83-40.93L441.83-47.53L448.82-47.53L448.82-40.93L441.83-40.93ZM482.08-27.97L465.71-27.97L465.71-6.35L482.08-6.35L482.08-12.15L488.43-12.15L488.43-6.35L488.43-6.35Q488.43-5.03 487.93-3.87L487.93-3.87L487.93-3.87Q487.43-2.71 486.57-1.85L486.57-1.85L486.57-1.85Q485.72-1.00 484.56-0.50L484.56-0.50L484.56-0.50Q483.40 0 482.08 0L482.08 0L465.71 0L465.71 0Q464.42 0 463.26-0.50L463.26-0.50L463.26-0.50Q462.10-1.00 461.24-1.85L461.24-1.85L461.24-1.85Q460.39-2.71 459.89-3.87L459.89-3.87L459.89-3.87Q459.39-5.03 459.39-6.35L459.39-6.35L459.39-27.97L459.39-27.97Q459.39-29.29 459.89-30.45L459.89-30.45L459.89-30.45Q460.39-31.61 461.24-32.47L461.24-32.47L461.24-32.47Q462.10-33.32 463.26-33.82L463.26-33.82L463.26-33.82Q464.42-34.32 465.71-34.32L465.71-34.32L482.08-34.32L482.08-34.32Q483.40-34.32 484.56-33.82L484.56-33.82L484.56-33.82Q485.72-33.32 486.57-32.47L486.57-32.47L486.57-32.47Q487.43-31.61 487.93-30.45L487.93-30.45L487.93-30.45Q488.43-29.29 488.43-27.97L488.43-27.97L488.43-22.17L482.08-22.17L482.08-27.97ZM499.00-6.35L499.00-14.99L499.00-14.99Q499.00-16.31 499.50-17.45L499.50-17.45L499.50-17.45Q500.00-18.59 500.85-19.46L500.85-19.46L500.85-19.46Q501.70-20.33 502.86-20.83L502.86-20.83L502.86-20.83Q504.02-21.33 505.31-21.33L505.31-21.33L521.68-21.33L521.68-27.97L500.96-27.97L500.96-34.32L521.68-34.32L521.68-34.32Q523.00-34.32 524.17-33.82L524.17-33.82L524.17-33.82Q525.33-33.32 526.18-32.47L526.18-32.47L526.18-32.47Q527.03-31.61 527.53-30.45L527.53-30.45L527.53-30.45Q528.03-29.29 528.03-27.97L528.03-27.97L528.03 0L521.68 0L521.68-5.80L521.68-5.80Q521.59-4.61 521.04-3.54L521.04-3.54L521.04-3.54Q520.49-2.48 519.64-1.69L519.64-1.69L519.64-1.69Q518.78-0.90 517.69-0.45L517.69-0.45L517.69-0.45Q516.59 0 515.37 0L515.37 0L505.31 0L505.31 0Q504.02 0 502.86-0.50L502.86-0.50L502.86-0.50Q501.70-1.00 500.85-1.85L500.85-1.85L500.85-1.85Q500.00-2.71 499.50-3.87L499.50-3.87L499.50-3.87Q499.00-5.03 499.00-6.35L499.00-6.35ZM505.31-14.99L505.31-6.35L521.68-6.35L521.68-14.99L505.31-14.99ZM558.00-27.97L544.92-27.97L544.92 0L538.60 0L538.60-34.32L544.92-34.32L544.92-28.26L544.92-28.26Q544.98-29.52 545.50-30.63L545.50-30.63L545.50-30.63Q546.01-31.74 546.87-32.56L546.87-32.56L546.87-32.56Q547.72-33.39 548.85-33.85L548.85-33.85L548.85-33.85Q549.98-34.32 551.27-34.32L551.27-34.32L558.00-34.32L558.00-34.32Q559.32-34.32 560.47-33.82L560.47-33.82L560.47-33.82Q561.61-33.32 562.48-32.47L562.48-32.47L562.48-32.47Q563.35-31.61 563.85-30.45L563.85-30.45L563.85-30.45Q564.35-29.29 564.35-27.97L564.35-27.97L564.35-22.17L558.00-22.17L558.00-27.97ZM601.28-27.97L601.28-13.92L578.56-13.92L578.56-6.35L601.28-6.35L601.28 0L578.56 0L578.56 0Q577.27 0 576.11-0.50L576.11-0.50L576.11-0.50Q574.95-1.00 574.10-1.85L574.10-1.85L574.10-1.85Q573.25-2.71 572.75-3.87L572.75-3.87L572.75-3.87Q572.25-5.03 572.25-6.35L572.25-6.35L572.25-27.97L572.25-27.97Q572.25-29.29 572.75-30.45L572.75-30.45L572.75-30.45Q573.25-31.61 574.10-32.47L574.10-32.47L574.10-32.47Q574.95-33.32 576.11-33.82L576.11-33.82L576.11-33.82Q577.27-34.32 578.56-34.32L578.56-34.32L594.93-34.32L594.93-34.32Q596.26-34.32 597.42-33.82L597.42-33.82L597.42-33.82Q598.58-33.32 599.43-32.47L599.43-32.47L599.43-32.47Q600.28-31.61 600.78-30.45L600.78-30.45L600.78-30.45Q601.28-29.29 601.28-27.97L601.28-27.97ZM594.93-27.97L578.56-27.97L578.56-20.27L594.93-20.27L594.93-27.97ZM609.86-27.97L609.86-34.32L618.23-34.32L618.23-44.89L624.58-44.89L624.58-34.32L635.86-34.32L635.86-27.97L624.58-27.97L624.58-6.35L635.86-6.35L635.86 0L624.58 0L624.58 0Q623.29 0 622.13-0.50L622.13-0.50L622.13-0.50Q620.97-1.00 620.10-1.85L620.10-1.85L620.10-1.85Q619.23-2.71 618.73-3.87L618.73-3.87L618.73-3.87Q618.23-5.03 618.23-6.35L618.23-6.35L618.23-27.97L609.86-27.97Z" fill="url(#editing-gradient-gradient)"></path></g></g><style>text {
  font-size: 64px;
  font-family: Arial Black;
  dominant-baseline: central;
  text-anchor: middle;
}</style></svg>